<?xml version="1.0" encoding="UTF-8"?>
<svg id="uuid-76fbc838-afb1-4168-8377-49d7d7305bb1" data-name="Layer_1" xmlns="http://www.w3.org/2000/svg" viewBox="0 0 30.28 30.28">
  <defs>
    <style>
      .uuid-cf7cbada-b41a-4b83-917b-c1b28bb6d838 {
        fill: #fff;
      }

      .uuid-1a4c3734-a6af-48e2-95c0-3a4b23a09a9e {
        fill: none;
        stroke: #fff;
        stroke-miterlimit: 10;
        stroke-width: .28px;
      }

      .uuid-2082c15c-9955-4aea-b536-b4f395aac350 {
        fill: #141613;
      }
    </style>
  </defs>
  <g>
    <path class="uuid-cf7cbada-b41a-4b83-917b-c1b28bb6d838" d="M15.14,28.44h0c-7.35,0-13.3-5.95-13.3-13.3h0C1.84,7.79,7.79,1.84,15.14,1.84h0c7.35,0,13.3,5.95,13.3,13.3h0c0,7.35-5.95,13.3-13.3,13.3Z"/>
    <path class="uuid-1a4c3734-a6af-48e2-95c0-3a4b23a09a9e" d="M15.14,30.14h0C6.86,30.14.14,23.42.14,15.14H.14C.14,6.86,6.86.14,15.14.14h0c8.28,0,15,6.72,15,15h0c0,8.28-6.72,15-15,15Z"/>
  </g>
  <path class="uuid-2082c15c-9955-4aea-b536-b4f395aac350" d="M15.14,6.83c-4.59,0-8.3,3.72-8.3,8.31s3.72,8.3,8.3,8.3,8.3-3.72,8.3-8.3-3.72-8.31-8.3-8.31ZM15.14,8.28c1.57,0,3.02.54,4.18,1.43-.83,1.08-1.98,1.93-3.45,2.55-.7-1.29-1.51-2.54-2.41-3.76.54-.14,1.1-.22,1.68-.22ZM12.04,9.03c.92,1.21,1.74,2.45,2.45,3.72-1.68.49-3.69.75-6.01.77.48-1.96,1.8-3.59,3.56-4.49ZM8.28,15.14c0-.06,0-.12,0-.18,2.66,0,4.96-.31,6.89-.92.16.33.32.66.46.99-2.34.73-4.27,2.23-5.77,4.48-.99-1.19-1.59-2.72-1.59-4.38ZM15.14,22c-1.59,0-3.05-.55-4.21-1.45,1.36-2.14,3.1-3.53,5.26-4.17.64,1.67,1.11,3.4,1.41,5.16-.77.3-1.59.46-2.46.46ZM18.95,20.84c-.3-1.63-.75-3.22-1.33-4.77,1.3-.18,2.73-.14,4.29.14-.3,1.93-1.4,3.59-2.96,4.64ZM17.07,14.7c-.17-.39-.34-.78-.53-1.16,1.6-.69,2.88-1.63,3.84-2.82.93,1.1,1.52,2.5,1.61,4.04-1.78-.29-3.42-.31-4.92-.05Z"/>
</svg>