<?xml version="1.0" encoding="UTF-8"?>
<svg xmlns="http://www.w3.org/2000/svg" version="1.1" viewBox="0 0 31.4 31.4">
  <defs>
    <style>
      .cls-1 {
        fill: #fff;
        fill-rule: evenodd;
      }

      .cls-2 {
        fill: none;
        stroke: #000;
        stroke-miterlimit: 10;
        stroke-width: 1.4px;
      }
    </style>
  </defs>
  <!-- Generator: Adobe Illustrator 28.7.1, SVG Export Plug-In . SVG Version: 1.2.0 Build 142)  -->
  <g>
    <g id="uuid-76e2a157-41fb-4fb7-9be8-f0c3f7cd1706">
      <path d="M15.7,29h0c-7.3,0-13.3-5.9-13.3-13.3h0c0-7.4,5.9-13.3,13.3-13.3h0c7.3,0,13.3,5.9,13.3,13.3h0c0,7.3-5.9,13.3-13.3,13.3Z"/>
      <path class="cls-2" d="M15.7,30.7h0C7.4,30.7.7,24,.7,15.7h0C.7,7.4,7.4.7,15.7.7h0c8.3,0,15,6.7,15,15h0c0,8.3-6.7,15-15,15Z"/>
      <path class="cls-1" d="M21.7,18.3c-.3-.2-1.9-1-2.2-1.1-.3-.1-.5-.2-.7.2-.2.3-.9,1.1-1,1.3-.2.2-.4.2-.7,0s-1.4-.5-2.6-1.6c-1-.9-1.6-1.9-1.8-2.2s0-.5.1-.7c.1-.1.3-.4.5-.6,0,0,0-.1.1-.2,0-.1.1-.2.2-.4.1-.2,0-.4,0-.6,0-.2-.7-1.8-1-2.4-.3-.6-.5-.5-.7-.5s-.4,0-.6,0-.6,0-.9.4-1.1,1.1-1.1,2.7,0,.8.2,1.1c.3,1.1,1.1,2.1,1.2,2.2.2.2,2.3,3.6,5.6,4.9,3.3,1.3,3.3.9,3.9.8.6,0,1.9-.8,2.2-1.5.3-.8.3-1.4.2-1.5,0-.1-.3-.2-.6-.4h0Z"/>
    </g>
  </g>
</svg>