<?xml version="1.0" encoding="UTF-8"?>
<svg id="uuid-e8759f83-40d4-460e-8c2b-6ecc0c77f557" data-name="Layer_1" xmlns="http://www.w3.org/2000/svg" viewBox="0 0 30.28 30.28">
  <defs>
    <style>
      .uuid-f0833535-1107-4103-a1fc-da2ae1fd4577 {
        fill: #fff;
      }

      .uuid-c1034407-7443-47f9-ac2d-b1471a3d7b45 {
        fill: none;
        stroke: #fff;
        stroke-miterlimit: 10;
        stroke-width: .28px;
      }

      .uuid-83ae83ee-ea39-4013-81eb-f64d1ecf2992 {
        fill: #141613;
        fill-rule: evenodd;
      }
    </style>
  </defs>
  <g>
    <path class="uuid-f0833535-1107-4103-a1fc-da2ae1fd4577" d="M15.14,28.44h0c-7.35,0-13.3-5.95-13.3-13.3h0C1.84,7.79,7.79,1.84,15.14,1.84h0c7.35,0,13.3,5.95,13.3,13.3h0c0,7.35-5.95,13.3-13.3,13.3Z"/>
    <path class="uuid-c1034407-7443-47f9-ac2d-b1471a3d7b45" d="M15.14,30.14h0C6.86,30.14.14,23.42.14,15.14H.14C.14,6.86,6.86.14,15.14.14h0c8.28,0,15,6.72,15,15h0c0,8.28-6.72,15-15,15Z"/>
  </g>
  <g>
    <path class="uuid-83ae83ee-ea39-4013-81eb-f64d1ecf2992" d="M23.98,14.69c-.12-4.66-3.96-8.4-8.68-8.4s-8.47,3.66-8.68,8.24c0,.13,0,.25,0,.38,0,1.63.46,3.15,1.24,4.45l-1.57,4.62,4.81-1.53c1.24.68,2.68,1.07,4.2,1.07,4.8,0,8.68-3.86,8.68-8.62,0-.07,0-.15,0-.22ZM15.3,22.16c-1.48,0-2.86-.44-4.02-1.2l-2.81.89.91-2.69c-.87-1.2-1.39-2.66-1.39-4.25,0-.24.01-.47.04-.7.36-3.67,3.48-6.54,7.27-6.54s6.98,2.95,7.28,6.68c.02.19.02.37.02.57,0,4-3.28,7.24-7.3,7.24Z"/>
    <path class="uuid-83ae83ee-ea39-4013-81eb-f64d1ecf2992" d="M19.28,16.65c-.22-.11-1.26-.62-1.46-.69-.2-.07-.34-.11-.48.11-.14.21-.55.69-.67.83-.13.14-.25.16-.46.05-.21-.11-.9-.33-1.71-1.05-.63-.56-1.06-1.25-1.18-1.46s-.01-.33.09-.43c.1-.1.21-.25.32-.37.03-.04.05-.07.08-.1.05-.08.09-.15.13-.25.07-.14.04-.26-.02-.37-.05-.11-.48-1.15-.66-1.57-.17-.42-.35-.35-.48-.35s-.26-.02-.41-.02-.37.05-.57.26c-.2.21-.74.72-.74,1.76,0,.24.04.49.11.72.22.74.68,1.36.76,1.46.11.14,1.47,2.34,3.63,3.19,2.17.84,2.17.56,2.56.52.39-.03,1.26-.51,1.44-1,.18-.49.18-.91.13-1-.05-.09-.2-.14-.41-.24Z"/>
  </g>
</svg>